<?xml version="1.0" ?><svg style="enable-background:new 0 0 24 24;" version="1.1" viewBox="0 0 24 24" xml:space="preserve" xmlns="http://www.w3.org/2000/svg" xmlns:xlink="http://www.w3.org/1999/xlink"><style type="text/css">
	.st0{display:none;}
</style><g class="st0" id="grid"/><g id="icon"><path d="M21.577,3.381c-0.438-0.439-1.152-0.439-1.591,0L8.614,14.754l-4.6-4.6c-0.438-0.439-1.152-0.439-1.591,0L0.33,12.248   c-0.438,0.438-0.438,1.152,0,1.591l7.364,7.364c0.246,0.246,0.573,0.382,0.92,0.382s0.674-0.136,0.92-0.382L23.67,7.065   c0.438-0.438,0.438-1.152,0-1.591L21.577,3.381z M22.963,6.358L8.827,20.496c-0.113,0.115-0.311,0.115-0.425,0l-7.365-7.364   c-0.049-0.049-0.049-0.128,0-0.177l2.094-2.094c0.021-0.021,0.055-0.031,0.088-0.031s0.067,0.011,0.088,0.031l4.954,4.953   c0.188,0.188,0.52,0.188,0.707,0L20.693,4.088c0.049-0.049,0.128-0.049,0.177,0l2.094,2.094C23.012,6.23,23.012,6.31,22.963,6.358z   "/></g></svg>