<?xml version="1.0" encoding="UTF-8"?>
<svg width="700pt" height="700pt" version="1.1" viewBox="0 0 700 700" xmlns="http://www.w3.org/2000/svg">
 <path d="m630 280c0-154.61-125.37-280-280-280s-280 125.37-280 280 125.37 280 280 280 280-125.39 280-280zm-340.64 130.48c-13.055-13.055-13.055-34.176 0-47.234l84.016-83.055-84.016-83.055c-13.055-13.055-13.055-34.176 0-47.234 13.195-12.984 34.527-13.055 47.723 0l107.73 106.71c13.055 12.984 13.055 34.176 0 47.215l-107.73 106.64c-13.195 13.059-34.527 13.059-47.723 0.003907z"/>
</svg>
