<?xml version="1.0" encoding="UTF-8"?>
<svg width="700pt" height="700pt" version="1.1" viewBox="0 0 700 700" xmlns="http://www.w3.org/2000/svg">
 <path d="m70 280.02c0 154.61 125.37 280 280 280s280-125.37 280-280-125.37-280-280-280-280 125.39-280 280zm340.64-130.5c13.055 13.055 13.055 34.176 0 47.234l-84.016 83.055 84.016 83.055c13.055 13.055 13.055 34.176 0 47.234-13.195 12.984-34.527 13.055-47.723 0l-107.73-106.71c-13.055-12.984-13.055-34.176 0-47.234l107.73-106.64c13.195-13.039 34.527-13.039 47.723 0.015625z"/>
</svg>
